HIERARCHY
ROOT Hips
{
	OFFSET 0.000000 0.000000 0.000000
	CHANNELS 6 Xposition Yposition Zposition Xrotation Yrotation Zrotation
	JOINT LeftUpLeg_virtual
	{
		OFFSET 0.000000 0.000000 0.000000
		CHANNELS 3 Xrotation Yrotation Zrotation
		JOINT LeftUpLeg
		{
			OFFSET 15.427100 -6.655098 0.678600
			CHANNELS 3 Xrotation Yrotation Zrotation
			JOINT LeftLeg
			{
				OFFSET 4.081073 -39.591068 13.024000
				CHANNELS 3 Xrotation Yrotation Zrotation
				JOINT LeftFoot
				{
					OFFSET -4.081074 -37.707932 -15.979700
					CHANNELS 3 Xrotation Yrotation Zrotation
					JOINT LeftToeBase
					{
						OFFSET 5.346399 -15.068900 20.645000
						CHANNELS 3 Xrotation Yrotation Zrotation
						JOINT LeftToe_End
						{
							OFFSET 2.754700 0.931300 11.300900
							CHANNELS 3 Xrotation Yrotation Zrotation
							End Site
							{
								OFFSET 0 0 0
							}
						}
					}
				}
			}
		}
	}
	JOINT RightUpLeg_virtual
	{
		OFFSET 0.000000 0.000000 0.000000
		CHANNELS 3 Xrotation Yrotation Zrotation
		JOINT RightUpLeg
		{
			OFFSET -15.569500 -6.655098 0.678600
			CHANNELS 3 Xrotation Yrotation Zrotation
			JOINT RightLeg
			{
				OFFSET -4.081825 -39.591045 13.023800
				CHANNELS 3 Xrotation Yrotation Zrotation
				JOINT RightFoot
				{
					OFFSET 4.081824 -37.707954 -15.979600
					CHANNELS 3 Xrotation Yrotation Zrotation
					JOINT RightToeBase
					{
						OFFSET -5.346400 -15.068900 20.645000
						CHANNELS 3 Xrotation Yrotation Zrotation
						JOINT RightToe_End
						{
							OFFSET -2.754700 0.931300 11.300900
							CHANNELS 3 Xrotation Yrotation Zrotation
							End Site
							{
								OFFSET 0 0 0
							}
						}
					}
				}
			}
		}
	}
	JOINT Spine_virtual
	{
		OFFSET 0.000000 0.000000 0.000000
		CHANNELS 3 Xrotation Yrotation Zrotation
		JOINT Spine
		{
			OFFSET -0.279200 12.230698 -2.892100
			CHANNELS 3 Xrotation Yrotation Zrotation
			JOINT Spine1
			{
				OFFSET -0.232667 10.192268 -1.242267
				CHANNELS 3 Xrotation Yrotation Zrotation
				JOINT Spine1_split
				{
					OFFSET -0.232667 10.192268 -1.242267
					CHANNELS 3 Xrotation Yrotation Zrotation
					JOINT Spine2
					{
						OFFSET -0.232667 10.192268 -1.242267
						CHANNELS 3 Xrotation Yrotation Zrotation
						JOINT Neck_virtual
						{
							OFFSET 0.000000 0.000000 0.000000
							CHANNELS 3 Xrotation Yrotation Zrotation
							JOINT Neck
							{
								OFFSET -0.418800 17.814194 8.416900
								CHANNELS 3 Xrotation Yrotation Zrotation
								JOINT Head
								{
									OFFSET 0.000000 7.031097 3.806800
									CHANNELS 3 Xrotation Yrotation Zrotation
									JOINT HeadTop_End
									{
										OFFSET 0.000000 24.646606 12.978600
										CHANNELS 3 Xrotation Yrotation Zrotation
										End Site
										{
											OFFSET 0 0 0
										}
									}
								}
							}
						}
						JOINT LeftShoulder_virtual
						{
							OFFSET 0.000000 0.000000 0.000000
							CHANNELS 3 Xrotation Yrotation Zrotation
							JOINT LeftShoulder
							{
								OFFSET 8.476499 7.247704 -3.868750
								CHANNELS 3 Xrotation Yrotation Zrotation
								JOINT LeftShoulder_split
								{
									OFFSET 8.476499 7.247704 -3.868750
									CHANNELS 3 Xrotation Yrotation Zrotation
									JOINT LeftArm
									{
										OFFSET 9.308998 -2.777710 0.208600
										CHANNELS 3 Xrotation Yrotation Zrotation
										JOINT LeftForeArm
										{
											OFFSET 29.972298 0.000000 0.000000
											CHANNELS 3 Xrotation Yrotation Zrotation
											JOINT LeftHand
											{
												OFFSET 26.026505 0.000000 0.000000
												CHANNELS 3 Xrotation Yrotation Zrotation
												End Site
												{
													OFFSET 0 0 0
												}
											}
										}
									}
								}
							}
						}
						JOINT RightShoulder_virtual
						{
							OFFSET 0.000000 0.000000 0.000000
							CHANNELS 3 Xrotation Yrotation Zrotation
							JOINT RightShoulder
							{
								OFFSET -7.570500 7.247704 -3.868750
								CHANNELS 3 Xrotation Yrotation Zrotation
								JOINT RightShoulder_split
								{
									OFFSET -7.570500 7.247704 -3.868750
									CHANNELS 3 Xrotation Yrotation Zrotation
									JOINT RightArm
									{
										OFFSET -9.308998 -2.777710 0.208500
										CHANNELS 3 Xrotation Yrotation Zrotation
										JOINT RightForeArm
										{
											OFFSET -29.972300 0.000000 0.000000
											CHANNELS 3 Xrotation Yrotation Zrotation
											JOINT RightHand
											{
												OFFSET -26.026505 0.000000 0.000000
												CHANNELS 3 Xrotation Yrotation Zrotation
												End Site
												{
													OFFSET 0 0 0
												}
											}
										}
									}
								}
							}
						}
					}
				}
			}
		}
	}
}
MOTION
Frames: 4
Frame Time: 0.03333333
-32.630928 88.992508 -47.634010 0.000000 0.000000 0.000000 7.188475 10.446748 -1.532374 -46.064394 7.540251 15.814200 35.944338 7.814779 -0.797823 24.650194 5.947360 -8.041247 -11.505422 -2.873855 7.557699 0.000000 0.000000 0.000000 7.775192 10.906024 -1.774567 4.851732 -17.377487 -5.492867 18.441968 8.903297 2.839838 -20.445481 -24.459423 16.741822 -2.933336 9.097695 -1.740477 0.000000 0.000000 0.000000 7.564313 13.258993 -2.332953 4.250243 -0.066082 -3.026439 0.349203 -0.113493 -1.517754 0.156021 0.126191 0.005678 0.000000 0.000000 0.000000 0.920899 3.153151 -2.469959 0.299287 7.211638 5.173511 7.469366 18.424432 2.651367 0.000000 0.000000 0.000000 0.168347 1.080003 -2.840101 2.865348 1.095925 -9.139281 1.257925 -0.249487 1.011407 -20.848232 18.295041 -29.009309 -7.808719 -57.597107 -11.754893 0.000000 0.000000 0.000000 2.077459 2.087235 -2.233913 -1.454225 -10.958919 16.748240 3.774884 1.034033 1.020538 -23.006283 -16.392703 35.900301 0.680008 16.406765 0.887051 0.000000 0.000000 0.000000 
-31.594694 90.418823 -48.505241 0.000000 0.000000 0.000000 7.772015 10.700792 -0.918621 -40.240801 5.103519 17.229728 38.732763 7.894742 -1.244469 21.062307 11.213360 -9.976044 -5.690314 -2.151024 4.437276 0.000000 0.000000 0.000000 8.490205 10.924558 -1.086407 -0.142103 -17.839402 -8.428416 19.265406 9.217357 2.901620 -15.300679 -23.539641 18.299774 -4.388522 8.845192 -1.535224 0.000000 0.000000 0.000000 8.774784 14.287349 -1.926785 3.486783 1.024106 -2.499170 -0.353642 0.277101 -1.861584 0.193810 0.148307 0.003955 0.000000 0.000000 0.000000 0.192237 3.438731 -2.556613 -0.096597 8.112715 4.086285 5.890746 12.608887 2.389436 0.000000 0.000000 0.000000 -0.360550 1.525216 -3.246235 3.310839 2.182934 -11.439439 1.894127 -0.971920 1.458635 -7.369140 25.443783 -35.574774 -7.566085 -58.253235 -11.171586 0.000000 0.000000 0.000000 1.802623 2.548948 -2.598501 -1.655436 -9.908119 15.915522 4.893558 0.182850 0.835508 -25.170881 -16.395359 33.825494 1.646323 18.024121 -0.118119 0.000000 0.000000 0.000000 
-30.395079 91.678452 -49.131310 0.000000 0.000000 0.000000 8.379811 11.246678 -0.431130 -34.916569 3.055246 19.024729 38.012929 8.657488 -1.554943 18.784547 17.218412 -12.396062 2.703009 -1.526676 0.800115 0.000000 0.000000 0.000000 9.554024 11.385518 -0.586765 -3.468377 -17.990512 -11.121843 18.470008 9.473105 2.740880 -11.622807 -23.001634 20.341041 -4.855080 8.823661 -1.943356 0.000000 0.000000 0.000000 9.871155 15.655851 -1.831178 2.497627 2.041312 -1.962909 -0.954207 0.593701 -2.105351 0.232451 0.209392 -0.008809 0.000000 0.000000 0.000000 -0.416862 3.618472 -2.625624 0.212674 8.945909 2.761333 4.545496 7.142417 2.269082 0.000000 0.000000 0.000000 -0.751790 1.808059 -3.557840 3.710293 3.159101 -12.695515 1.989221 -1.934432 1.347831 4.647677 29.803763 -42.285585 -5.641433 -55.646104 -9.098880 0.000000 0.000000 0.000000 1.628200 2.902612 -2.822826 -1.714596 -9.005346 15.163110 5.142134 -0.587338 0.894289 -26.333130 -17.119459 32.111287 2.234614 19.075707 -0.783078 0.000000 0.000000 0.000000 
-28.918726 92.419235 -49.902405 0.000000 0.000000 0.000000 9.275585 12.543239 -0.346222 -30.448321 1.252363 21.212095 34.176996 9.127563 -1.317097 19.076853 21.591720 -16.294267 7.530705 -1.445722 -1.432870 0.000000 0.000000 0.000000 10.626044 12.573845 -0.577521 -4.420787 -17.940626 -12.914608 16.321159 9.602813 2.274004 -10.207031 -22.999875 22.803237 -3.975712 9.071880 -2.946410 0.000000 0.000000 0.000000 10.961106 17.765035 -2.149225 1.436833 2.860706 -1.451245 -1.470387 0.802919 -2.286428 0.242487 0.230744 0.002462 0.000000 0.000000 0.000000 -0.824930 3.721162 -2.716259 1.175985 9.592269 1.504879 3.556648 2.083955 2.536762 0.000000 0.000000 0.000000 -1.049191 1.938427 -3.754759 3.994533 3.876154 -12.752512 1.703972 -2.638849 0.629560 12.687374 32.158641 -47.026891 -3.293770 -50.548850 -6.752778 0.000000 0.000000 0.000000 1.481553 3.123270 -2.906471 -1.674874 -8.303797 14.492744 4.546954 -1.450489 1.254244 -26.736873 -18.315521 30.387122 2.453394 19.409815 -1.050750 0.000000 0.000000 0.000000 
